<svg id="Layer_1" data-name="Layer 1" xmlns="http://www.w3.org/2000/svg" viewBox="0 0 380.92 85.04"><defs><style>.cls-1{fill:#fff;}</style></defs><title>icon_youtube</title><path class="cls-1" d="M25.45-142.35a15.22,15.22,0,0,0-10.74-10.74c-9.47-2.54-47.46-2.54-47.46-2.54s-38,0-47.46,2.54A15.22,15.22,0,0,0-91-142.35c-2.54,9.47-2.54,29.24-2.54,29.24s0,19.77,2.54,29.24A15.22,15.22,0,0,0-80.22-73.13c9.47,2.54,47.46,2.54,47.46,2.54s38,0,47.46-2.54A15.22,15.22,0,0,0,25.45-83.87C28-93.34,28-113.11,28-113.11S28-132.87,25.45-142.35ZM-44.91-94.88v-36.45l31.56,18.22Z" transform="translate(93.5 155.63)"/><path class="cls-1" d="M82.84-78.26a13.23,13.23,0,0,1-5.13-7.56,49.46,49.46,0,0,1-1.52-13.64v-7.73A44.82,44.82,0,0,1,77.93-121a13.86,13.86,0,0,1,5.43-7.6A17.58,17.58,0,0,1,93-131q5.91,0,9.47,2.43a13.94,13.94,0,0,1,5.21,7.6,46.64,46.64,0,0,1,1.65,13.77v7.73a47.41,47.41,0,0,1-1.61,13.68,13.43,13.43,0,0,1-5.21,7.56Q99-75.83,92.78-75.83,86.44-75.83,82.84-78.26ZM96.3-86.6q1-2.61,1-8.51v-16.59a25.68,25.68,0,0,0-1-8.38,3.58,3.58,0,0,0-3.52-2.65,3.52,3.52,0,0,0-3.43,2.65,25.64,25.64,0,0,0-1,8.38v16.59q0,5.91,1,8.51A3.49,3.49,0,0,0,92.78-84,3.57,3.57,0,0,0,96.3-86.6Z" transform="translate(93.5 155.63)"/><path class="cls-1" d="M267.36-99.33v2.69a70.75,70.75,0,0,0,.3,7.69,7.29,7.29,0,0,0,1.26,3.74,3.58,3.58,0,0,0,3,1.17,3.72,3.72,0,0,0,3.69-2.09q1-2.08,1.09-7l10.34.61a16.37,16.37,0,0,1,.09,1.91q0,7.39-4,11t-11.42,3.65q-8.86,0-12.42-5.56t-3.56-17.2v-9.3q0-12,3.69-17.51T272-131q6.17,0,9.47,2.26a12.12,12.12,0,0,1,4.65,7,50.87,50.87,0,0,1,1.35,13.21v9.12Zm1.52-22.41a7.33,7.33,0,0,0-1.22,3.69,71.89,71.89,0,0,0-.3,7.78v3.82h8.77v-3.82a64.89,64.89,0,0,0-.35-7.78,7.45,7.45,0,0,0-1.26-3.74,3.48,3.48,0,0,0-2.82-1.09A3.42,3.42,0,0,0,268.88-121.75Z" transform="translate(93.5 155.63)"/><path class="cls-1" d="M53.64-100.33,40-149.59H51.9l4.78,22.33q1.83,8.25,2.69,14.07h.35q.61-4.17,2.69-14l5-22.41h11.9L65.46-100.33V-76.7H53.64Z" transform="translate(93.5 155.63)"/><path class="cls-1" d="M148.09-130V-76.7H138.7l-1-6.52h-.26q-3.82,7.39-11.47,7.38-5.3,0-7.82-3.47t-2.52-10.86V-130h12v39.09a11.93,11.93,0,0,0,.78,5.08A2.7,2.7,0,0,0,131-84.26a5.32,5.32,0,0,0,3-1,5.92,5.92,0,0,0,2.13-2.43V-130Z" transform="translate(93.5 155.63)"/><path class="cls-1" d="M209.58-130V-76.7H200.2l-1-6.52h-.26q-3.82,7.39-11.47,7.38-5.3,0-7.82-3.47t-2.52-10.86V-130h12v39.09a11.93,11.93,0,0,0,.78,5.08,2.7,2.7,0,0,0,2.61,1.52,5.32,5.32,0,0,0,3-1,5.92,5.92,0,0,0,2.13-2.43V-130Z" transform="translate(93.5 155.63)"/><path class="cls-1" d="M180.67-139.95h-11.9V-76.7H157v-63.25h-11.9v-9.64h35.53Z" transform="translate(93.5 155.63)"/><path class="cls-1" d="M249.26-121.44q-1.09-5-3.52-7.3a9.45,9.45,0,0,0-6.69-2.26,11.09,11.09,0,0,0-6.17,1.87,12.7,12.7,0,0,0-4.43,4.91h-.09v-28.06H216.81V-76.7h9.9l1.22-5h.26a10.17,10.17,0,0,0,4.17,4.26,12.36,12.36,0,0,0,6.17,1.56,9.44,9.44,0,0,0,8.95-5.6q2.87-5.6,2.87-17.51v-8.43A70,70,0,0,0,249.26-121.44Zm-11,21.72a67.4,67.4,0,0,1-.48,9.12,9.85,9.85,0,0,1-1.61,4.69,3.71,3.71,0,0,1-3,1.39,5.56,5.56,0,0,1-2.74-.7,5.24,5.24,0,0,1-2-2.08v-30.23a7.57,7.57,0,0,1,2.09-3.56,4.61,4.61,0,0,1,3.21-1.39,3.24,3.24,0,0,1,2.82,1.43,11,11,0,0,1,1.39,4.82,89.92,89.92,0,0,1,.39,9.64Z" transform="translate(93.5 155.63)"/></svg>