<svg id="圖層_1" data-name="圖層 1" xmlns="http://www.w3.org/2000/svg" viewBox="0 0 300 300"><defs><style>.cls-1{fill:#fff;}</style></defs><title>icon_linkedin</title><path class="cls-1" d="M254.05,251H207.78c0-.43,0-.83,0-1.22q0-37.36,0-74.71a49.7,49.7,0,0,0-2.23-15.88c-1.44-4.28-3.71-8-7.65-10.42A20.45,20.45,0,0,0,186.39,146c-9,.18-15.41,4.62-19.84,12.27a26.49,26.49,0,0,0-3.41,13.62q0,38.9,0,77.81V251H116.52V113.7H163v18.94l.31,0c1.06-1.49,2.1-3,3.18-4.46,6.57-8.91,15.2-14.64,26.16-16.48,12-2,23.59-.92,34.56,4.62,9.33,4.71,15.91,12.11,20.33,21.49a64.53,64.53,0,0,1,5.81,21.66c.42,4.5.68,9,.69,13.56.06,25.56,0,51.12,0,76.68Z"/><path class="cls-1" d="M94.77,251.06h-1q-21.8,0-43.59,0c-1,0-1.17-.28-1.17-1.2q0-38.11-.1-76.21,0-19.92-.1-39.84,0-9.56,0-19.12c0-.31,0-.62,0-1h46Z"/><path class="cls-1" d="M70.79,49.25c5.5,0,10.43,1,14.86,3.86A21.76,21.76,0,0,1,95.79,69a22.12,22.12,0,0,1-5.26,18.56A23,23,0,0,1,77.13,95c-6.15,1.19-12.23,1-18-1.74C50.32,89.1,46,81.93,45.94,72.22c0-11.22,7.42-20,18.57-22.28,1.13-.23,2.27-.41,3.42-.54S70,49.29,70.79,49.25Z"/><path class="cls-1" d="M249.17,5A46.39,46.39,0,0,1,295.5,51.33V249.17a46.39,46.39,0,0,1-46.33,46.33H51.33A46.39,46.39,0,0,1,5,249.17V51.33A46.39,46.39,0,0,1,51.33,5H249.17m0-5H51.33A51.48,51.48,0,0,0,0,51.33V249.17A51.48,51.48,0,0,0,51.33,300.5H249.17a51.48,51.48,0,0,0,51.33-51.33V51.33A51.48,51.48,0,0,0,249.17,0Z"/></svg>